<svg width="16" height="17" viewBox="0 0 16 17" fill="none" xmlns="http://www.w3.org/2000/svg">
    <g clip-path="url(#clip0_2753_4122)">
        <path
            d="M12.9064 2.52667C12.2309 1.88667 11.4753 1.38889 10.6397 1.03333C9.80418 0.677776 8.92418 0.499998 7.99974 0.499998C7.0753 0.499998 6.18641 0.677776 5.33307 1.03333C4.47974 1.38889 3.73307 1.88667 3.09307 2.52667C2.45307 3.16667 1.9553 3.91333 1.59974 4.76667C1.24418 5.62 1.06641 6.50889 1.06641 7.43333C1.06641 8.35778 1.24418 9.23778 1.59974 10.0733C1.9553 10.9089 2.45307 11.6644 3.09307 12.34L6.77307 16.02C7.09307 16.34 7.49307 16.5 7.97307 16.5C8.45307 16.5 8.87085 16.34 9.22641 16.02L12.9064 12.34C13.5464 11.6644 14.0442 10.9089 14.3997 10.0733C14.7553 9.23778 14.9331 8.35778 14.9331 7.43333C14.9331 6.50889 14.7553 5.62 14.3997 4.76667C14.0442 3.91333 13.5464 3.16667 12.9064 2.52667ZM12.2131 11.6467L8.53307 15.3267C8.39085 15.4689 8.21307 15.54 7.99974 15.54C7.78641 15.54 7.59085 15.4689 7.41307 15.3267L3.73307 11.6467C3.16418 11.0778 2.73752 10.4289 2.45307 9.7C2.16863 8.97111 2.02641 8.20667 2.02641 7.40667C2.02641 6.60667 2.16863 5.84222 2.45307 5.11333C2.73752 4.38444 3.16418 3.74444 3.73307 3.19333C4.30196 2.64222 4.95085 2.21555 5.67974 1.91333C6.40863 1.61111 7.17307 1.46 7.97307 1.46C8.77307 1.46 9.53752 1.61111 10.2664 1.91333C10.9953 2.21555 11.6442 2.63333 12.2131 3.16667C12.9953 3.94889 13.5197 4.85555 13.7864 5.88667C14.0531 6.91778 14.0531 7.94889 13.7864 8.98C13.5197 10.0111 12.9953 10.9 12.2131 11.6467ZM7.99974 4.92667C7.32418 4.92667 6.73752 5.17555 6.23974 5.67333C5.74196 6.17111 5.49307 6.75778 5.49307 7.43333C5.49307 8.10889 5.74196 8.68667 6.23974 9.16667C6.73752 9.64667 7.32418 9.88667 7.99974 9.88667C8.6753 9.88667 9.25307 9.64667 9.73307 9.16667C10.2131 8.68667 10.4531 8.10889 10.4531 7.43333C10.4531 6.75778 10.2131 6.17111 9.73307 5.67333C9.25307 5.17555 8.6753 4.92667 7.99974 4.92667ZM7.99974 8.98C7.57307 8.98 7.20863 8.82889 6.90641 8.52667C6.60418 8.22444 6.45307 7.86 6.45307 7.43333C6.45307 7.00667 6.60418 6.64222 6.90641 6.34C7.20863 6.03778 7.57307 5.88667 7.99974 5.88667C8.42641 5.88667 8.79085 6.03778 9.09307 6.34C9.3953 6.64222 9.54641 7.00667 9.54641 7.43333C9.54641 7.86 9.3953 8.22444 9.09307 8.52667C8.79085 8.82889 8.42641 8.98 7.99974 8.98Z"
            fill="#555555" />
    </g>
    <defs>
        <clipPath id="clip0_2753_4122">
            <rect width="16" height="16" fill="white" transform="matrix(1 0 0 -1 0 16.5)" />
        </clipPath>
    </defs>
</svg>